<svg width="100" height="100" viewBox="0 0 100 100" xmlns="http://www.w3.org/2000/svg">
  <circle cx="50" cy="50" r="45" fill="#07C160"/>
  <path d="M30 35c-5.523 0-10 4.477-10 10v20c0 5.523 4.477 10 10 10h40c5.523 0 10-4.477 10-10v-20c0-5.523-4.477-10-10-10h-40zm0 5h40c2.761 0 5 2.239 5 5v20c0 2.761-2.239 5-5 5h-40c-2.761 0-5-2.239-5-5v-20c0-2.761 2.239-5 5-5z" fill="white"/>
  <path d="M40 45c-2.761 0-5 2.239-5 5s2.239 5 5 5 5-2.239 5-5-2.239-5-5-5zm20 0c-2.761 0-5 2.239-5 5s2.239 5 5 5 5-2.239 5-5-2.239-5-5-5z" fill="#07C160"/>
  <path d="M35 60c-1.657 0-3 1.343-3 3s1.343 3 3 3 3-1.343 3-3-1.343-3-3-3zm30 0c-1.657 0-3 1.343-3 3s1.343 3 3 3 3-1.343 3-3-1.343-3-3-3z" fill="#07C160"/>
</svg>